# xmcd CD database file
#
# Track frame offsets:
#	150
#	19626
#	39354
#	54631
#	75093
#	100087
#	118613
#	135695
#	153053
#	155554
#	170841
#	191264
#	192730
#	210279
#	220500
#	237800
#
# Disc length: 3266 seconds
#
# Revision: 0
# Processed by: cddbd v1.5.1PL0 Copyright (c) Steve Scherf et al.
# Submitted via: CDex 1.51
#
DISCID=c30cc010
DTITLE=Gui Tavares - Amigos and Friends
DYEAR=2004
DGENRE=Jazz
TTITLE0=O Samba é a Voz
TTITLE1=Cores Da Amizade
TTITLE2=Amor On Line
TTITLE3=Na Pegada Do Pandeiro
TTITLE4=Strange
TTITLE5=Noite Que Brincou De Lua
TTITLE6=Sabiá Na Palmeira
TTITLE7=Afinado
TTITLE8=Copacabana Scene
TTITLE9=É Mais Um Dia
TTITLE10=Brasuca Com Telecoteco
TTITLE11=Interlude Shoenberg
TTITLE12=Amor En Tempo De Jazz
TTITLE13=Hella
TTITLE14=Tudo Valle
TTITLE15=Sabiá Chorus
EXTD=YEAR: 2004
EXTT0=
EXTT1=
EXTT2=
EXTT3=
EXTT4=
EXTT5=
EXTT6=
EXTT7=
EXTT8=
EXTT9=
EXTT10=
EXTT11=
EXTT12=
EXTT13=
EXTT14=
EXTT15=
PLAYORDER=
